<svg xmlns:xlink="http://www.w3.org/1999/xlink" xmlns="http://www.w3.org/2000/svg" class="icon notification__icon" width="32"  height="32" ><defs><symbol viewBox="0 0 32 32" id="tag" xmlns="http://www.w3.org/2000/svg"><path d="M30.718 13.042l.002-9.522a2.243 2.243 0 00-2.24-2.24l-9.52.002-.402-.002c-.83 0-1.62.048-2.19.618L1.822 16.442a1.83 1.83 0 00-.542 1.308c0 .495.192.96.542 1.308l11.12 11.12c.348.35.813.542 1.308.542.492 0 .96-.192 1.308-.542l14.544-14.546c.626-.622.62-1.52.618-2.384l-.002-.206zM24.96 8.96a1.92 1.92 0 11.001-3.841 1.92 1.92 0 01-.001 3.841z"></path></symbol></defs>
                <use xlink:href="#tag" fill="#13CE66"></use>
            </svg>