<svg xmlns:xlink="http://www.w3.org/1999/xlink" xmlns="http://www.w3.org/2000/svg" viewBox="0 0 29 30" width="29"  height="30" ><path d="M14.125.947C6.355.947.042 7.253.042 15.014c0 7.762 6.312 14.067 14.083 14.067 7.77 0 14.083-6.305 14.083-14.067 0-7.761-6.312-14.067-14.083-14.067Zm0 1.173c7.137 0 12.91 5.766 12.91 12.894 0 7.13-5.773 12.895-12.91 12.895-7.137 0-12.91-5.766-12.91-12.895 0-7.128 5.773-12.894 12.91-12.894Zm-5.53 4.365a4.49 4.49 0 0 0-4.485 4.48c0 .957.304 1.842.815 2.57v5.58c0 .676.547 1.22 1.224 1.22h.854a2.45 2.45 0 0 0 2.409 2.037 2.45 2.45 0 0 0 2.408-2.037h3.773c.302 0 .578-.123.785-.315.209.185.475.312.78.315h.448a2.45 2.45 0 0 0 2.41 2.037c1.345 0 2.446-1.1 2.446-2.444 0-1.345-1.1-2.445-2.447-2.445a2.45 2.45 0 0 0-2.409 2.037h-.442a.44.44 0 0 1-.278-.133.43.43 0 0 1-.133-.274v-7.74c0-.153.254-.407.407-.407h3.263c.324 0 .784.353 1.096.727l.064.087h-1.976c-.65 0-1.223.525-1.223 1.222v1.63c0 .339.158.632.374.848.217.216.51.374.85.374h4.078v3.259c0 .153-.255.407-.408.407h-.816v.815h.816c.677 0 1.223-.546 1.223-1.222v-3.916c0-.933-.651-1.757-.651-1.757l-.005-.005-1.69-2.251-.007-.008c-.376-.454-.944-1.025-1.725-1.025H17.16c-.145 0-.28.029-.407.075v-.928c0-.625-.494-1.184-1.147-1.184h-3.552a4.487 4.487 0 0 0-3.458-1.63Zm0 .814a3.663 3.663 0 0 1 3.671 3.667 3.663 3.663 0 0 1-3.67 3.666 3.663 3.663 0 0 1-3.67-3.666 3.663 3.663 0 0 1 3.67-3.667ZM8.59 7.7a.41.41 0 0 0-.401.414v2.355a.64.64 0 0 0-.236.497l.003.063-.871.87a.404.404 0 0 0-.112.397.403.403 0 0 0 .292.291.405.405 0 0 0 .397-.111l.871-.87.064.003a.643.643 0 0 0 .408-1.14V8.114a.408.408 0 0 0-.415-.414Zm3.998 1.229h3.019c.175 0 .33.168.33.369V19.177a.34.34 0 0 1-.343.343H11.82a2.45 2.45 0 0 0-2.408-2.037 2.45 2.45 0 0 0-2.41 2.037H6.15c-.153 0-.408-.254-.408-.405v-4.698a4.461 4.461 0 0 0 2.855 1.03 4.49 4.49 0 0 0 4.486-4.481c0-.734-.18-1.426-.495-2.037Zm7.02 3.666h2.588l.99 1.32c.002.002.375.637.453 1.124h-4.03a.442.442 0 0 1-.273-.135.44.44 0 0 1-.135-.272v-1.63c0-.205.242-.407.407-.407ZM9.412 18.298c.906 0 1.63.724 1.63 1.63 0 .905-.724 1.63-1.63 1.63a1.623 1.623 0 0 1-1.632-1.63c0-.906.725-1.63 1.632-1.63Zm10.603 0c.907 0 1.632.724 1.632 1.63 0 .905-.725 1.63-1.632 1.63a1.623 1.623 0 0 1-1.631-1.63c0-.906.725-1.63 1.631-1.63Z" fill="#8492A6" fill-rule="nonzero"></path></svg>